<svg width="25" height="20" viewBox="0 0 25 20" fill="none" xmlns="http://www.w3.org/2000/svg">
<path d="M17.0359 1.61644L18.7348 5.01516C18.9637 5.4852 19.5782 5.93113 20.0963 6.02755L23.1688 6.53374C25.1327 6.85916 25.5906 8.28138 24.1809 9.70354L21.7832 12.1019C21.3856 12.4997 21.1566 13.2831 21.2892 13.8495L21.9759 16.8144C22.5181 19.1525 21.2651 20.0685 19.2047 18.8391L16.325 17.1277C15.8069 16.8144 14.9394 16.8144 14.4213 17.1277L11.5416 18.8391C9.48124 20.0564 8.22816 19.1525 8.77036 16.8144L9.45714 13.8495C9.56558 13.271 9.33665 12.4876 8.93904 12.0899L6.54132 9.69149C5.1316 8.28138 5.58946 6.85915 7.55342 6.52169L10.6259 6.0155C11.144 5.93113 11.7585 5.47315 11.9875 5.00311L13.6863 1.60438C14.6141 -0.227554 16.1082 -0.227554 17.0359 1.61644Z" fill="#00EEBD"/>
<path d="M8.13297 2.26584H0.903663C0.409661 2.26584 0 1.85607 0 1.36192C0 0.867783 0.409661 0.458008 0.903663 0.458008H8.13297C8.62697 0.458008 9.03663 0.867783 9.03663 1.36192C9.03663 1.85607 8.62697 2.26584 8.13297 2.26584Z" fill="#00EEBD"/>
<path d="M4.51832 19.1389H0.903663C0.409661 19.1389 0 18.7291 0 18.235C0 17.7408 0.409661 17.3311 0.903663 17.3311H4.51832C5.01232 17.3311 5.42198 17.7408 5.42198 18.235C5.42198 18.7291 5.01232 19.1389 4.51832 19.1389Z" fill="#00EEBD"/>
<path d="M2.10855 10.7029H0.903663C0.409661 10.7029 0 10.2931 0 9.79894C0 9.3048 0.409661 8.89502 0.903663 8.89502H2.10855C2.60255 8.89502 3.01221 9.3048 3.01221 9.79894C3.01221 10.2931 2.60255 10.7029 2.10855 10.7029Z" fill="#00EEBD"/>
</svg>
