<svg width="28" height="29" viewBox="0 0 28 29" fill="none" xmlns="http://www.w3.org/2000/svg">
<path d="M20.5 16.1253V20.0265C20.5 25.2282 18.42 27.3088 13.22 27.3088H8.28C3.08 27.3088 1 25.2282 1 20.0265V15.085C1 9.88338 3.08 7.80273 8.28 7.80273H12.18" stroke="white" stroke-width="2" stroke-linecap="round" stroke-linejoin="round"/>
<path d="M20.5002 16.1253H16.3402C13.2202 16.1253 12.1802 15.085 12.1802 11.964V7.80273L20.5002 16.1253Z" stroke="white" stroke-width="2" stroke-linecap="round" stroke-linejoin="round"/>
<path d="M13.48 1.30078H18.68" stroke="white" stroke-width="2" stroke-linecap="round" stroke-linejoin="round"/>
<path d="M7.5 5.202C7.5 3.04332 9.242 1.30078 11.4 1.30078H14.806" stroke="white" stroke-width="2" stroke-linecap="round" stroke-linejoin="round"/>
<path d="M26.9997 9.10352V17.153C26.9997 19.1687 25.3617 20.8072 23.3467 20.8072" stroke="white" stroke-width="2" stroke-linecap="round" stroke-linejoin="round"/>
<path d="M26.9997 9.10321H23.0997C20.1747 9.10321 19.1997 8.12791 19.1997 5.202V1.30078L26.9997 9.10321Z" stroke="white" stroke-width="2" stroke-linecap="round" stroke-linejoin="round"/>
</svg>
