<svg width="25" height="26" viewBox="0 0 25 26" fill="none" xmlns="http://www.w3.org/2000/svg">
<path d="M8.78212 0.22998C5.51337 0.22998 2.85596 2.88822 2.85596 6.15799C2.85596 9.36535 5.36366 11.9612 8.63241 12.0735C8.73221 12.061 8.83202 12.061 8.90688 12.0735H8.96926H8.99421C12.1881 11.9612 14.6958 9.36535 14.7083 6.15799C14.7083 2.88822 12.0509 0.22998 8.78212 0.22998Z" fill="#00EEBD"/>
<path d="M15.121 15.3923C11.6402 13.071 5.96359 13.071 2.4578 15.3923C0.873329 16.4531 0 17.8883 0 19.4234C0 20.9584 0.873329 22.3811 2.44532 23.4295C4.19198 24.6026 6.48759 25.1891 8.78319 25.1891C11.0788 25.1891 13.3744 24.6026 15.121 23.4295C16.693 22.3687 17.5663 20.9459 17.5663 19.3984C17.5539 17.8634 16.693 16.4407 15.121 15.3923Z" fill="#00EEBD"/>
<path d="M22.4927 6.8922C22.6923 9.31332 20.9706 11.4349 18.5877 11.7219C18.5752 11.7219 18.5752 11.7219 18.5627 11.7219H18.5253C18.4504 11.7219 18.3756 11.7219 18.3132 11.7469C17.103 11.8093 15.9926 11.4224 15.1567 10.711C16.4418 9.56292 17.1779 7.84068 17.0282 5.96868C16.9408 4.95779 16.5915 4.03427 16.0675 3.24803C16.5416 3.01091 17.0905 2.86115 17.652 2.81123C20.0973 2.59907 22.2806 4.42115 22.4927 6.8922Z" fill="#00EEBD"/>
<path d="M24.9863 18.4388C24.8865 19.6494 24.1129 20.6977 22.8154 21.4091C21.5678 22.0955 19.9958 22.4199 18.4363 22.3825C19.3346 21.5713 19.8586 20.5604 19.9584 19.4871C20.0832 17.9396 19.3471 16.4545 17.8749 15.2689C17.039 14.6074 16.0658 14.0833 15.0054 13.6964C17.7626 12.8977 21.231 13.4343 23.3644 15.1566C24.5122 16.0801 25.0986 17.2407 24.9863 18.4388Z" fill="#00EEBD"/>
</svg>
